<svg width="25" height="25" viewBox="0 0 25 25" fill="none" xmlns="http://www.w3.org/2000/svg">
<path d="M13.505 19.265C13.795 18.975 13.94 18.62 13.94 18.2C13.94 17.78 13.795 17.425 13.505 17.135C13.215 16.845 12.86 16.7 12.44 16.7C12.02 16.7 11.665 16.845 11.375 17.135C11.085 17.425 10.94 17.78 10.94 18.2C10.94 18.62 11.085 18.975 11.375 19.265C11.665 19.555 12.02 19.7 12.44 19.7C12.86 19.7 13.215 19.555 13.505 19.265ZM11.36 15.08H13.58C13.58 14.42 13.655 13.9 13.805 13.52C13.955 13.14 14.38 12.62 15.08 11.96C15.6 11.44 16.01 10.945 16.31 10.475C16.61 10.005 16.76 9.44 16.76 8.78C16.76 7.66 16.35 6.8 15.53 6.2C14.71 5.6 13.74 5.3 12.62 5.3C11.48 5.3 10.555 5.6 9.845 6.2C9.135 6.8 8.64 7.52 8.36 8.36L10.34 9.14C10.44 8.78 10.665 8.39 11.015 7.97C11.365 7.55 11.9 7.34 12.62 7.34C13.26 7.34 13.74 7.515 14.06 7.865C14.38 8.215 14.54 8.6 14.54 9.02C14.54 9.42 14.42 9.795 14.18 10.145C13.94 10.495 13.64 10.82 13.28 11.12C12.4 11.9 11.86 12.49 11.66 12.89C11.46 13.29 11.36 14.02 11.36 15.08ZM12.5 24.5C10.84 24.5 9.28 24.185 7.82 23.555C6.36 22.925 5.09 22.07 4.01 20.99C2.93 19.91 2.075 18.64 1.445 17.18C0.815 15.72 0.5 14.16 0.5 12.5C0.5 10.84 0.815 9.28 1.445 7.82C2.075 6.36 2.93 5.09 4.01 4.01C5.09 2.93 6.36 2.075 7.82 1.445C9.28 0.815 10.84 0.5 12.5 0.5C14.16 0.5 15.72 0.815 17.18 1.445C18.64 2.075 19.91 2.93 20.99 4.01C22.07 5.09 22.925 6.36 23.555 7.82C24.185 9.28 24.5 10.84 24.5 12.5C24.5 14.16 24.185 15.72 23.555 17.18C22.925 18.64 22.07 19.91 20.99 20.99C19.91 22.07 18.64 22.925 17.18 23.555C15.72 24.185 14.16 24.5 12.5 24.5ZM12.5 22.1C15.18 22.1 17.45 21.17 19.31 19.31C21.17 17.45 22.1 15.18 22.1 12.5C22.1 9.82 21.17 7.55 19.31 5.69C17.45 3.83 15.18 2.9 12.5 2.9C9.82 2.9 7.55 3.83 5.69 5.69C3.83 7.55 2.9 9.82 2.9 12.5C2.9 15.18 3.83 17.45 5.69 19.31C7.55 21.17 9.82 22.1 12.5 22.1Z" fill="white" stroke="white"/>
</svg>
