<svg width="137" height="44" viewBox="0 0 137 44" fill="none" xmlns="http://www.w3.org/2000/svg">
<g clip-path="url(#clip0_133_1514)">
<path d="M126.825 0H10C4.47715 0 0 4.47715 0 10V34C0 39.5228 4.47715 44 10 44H126.825C132.348 44 136.825 39.5228 136.825 34V10C136.825 4.47715 132.348 0 126.825 0Z" fill="#4E4912"/>
<path d="M11.05 32C10.7667 32 10.5208 31.8958 10.3125 31.6875C10.1042 31.4792 10 31.2333 10 30.95V28.325C10 26.825 10.4667 25.5 11.4 24.35C12.3333 23.2 13.5333 22.4667 15 22.15C14.3333 22.6167 13.8167 23.2042 13.45 23.9125C13.0833 24.6208 12.9 25.3833 12.9 26.2V30.95C12.9 31.1333 12.925 31.3167 12.975 31.5C13.025 31.6833 13.1083 31.85 13.225 32H11.05ZM14.725 32C14.4417 32 14.1958 31.8958 13.9875 31.6875C13.7792 31.4792 13.675 31.2333 13.675 30.95V26.2C13.675 25.0333 14.0875 24.0417 14.9125 23.225C15.7375 22.4083 16.7333 22 17.9 22H22.625C23.7917 22 24.7833 22.4083 25.6 23.225C26.4167 24.0417 26.825 25.0333 26.825 26.2V27.8C26.825 28.9667 26.4167 29.9583 25.6 30.775C24.7833 31.5917 23.7917 32 22.625 32H14.725ZM18.425 19.9C17.325 19.9 16.3917 19.5167 15.625 18.75C14.8583 17.9833 14.475 17.05 14.475 15.95C14.475 14.85 14.8583 13.9167 15.625 13.15C16.3917 12.3833 17.325 12 18.425 12C19.525 12 20.4583 12.3833 21.225 13.15C21.9917 13.9167 22.375 14.85 22.375 15.95C22.375 17.05 21.9917 17.9833 21.225 18.75C20.4583 19.5167 19.525 19.9 18.425 19.9Z" fill="white"/>
<path d="M45.18 20.948H51.846V22.07C51.846 26.91 49.096 29.286 45.136 29.286C40.604 29.286 38.052 26.184 38.052 21.344C38.052 16.328 40.78 13.248 45.092 13.248C48.282 13.248 50.988 14.942 51.582 18.132L48.084 18.704C47.71 17.142 46.698 16.328 45.202 16.328C42.98 16.328 41.748 18.154 41.748 21.388C41.748 24.358 42.782 26.228 45.224 26.228C46.918 26.228 47.952 25.304 48.106 23.478H45.18V20.948ZM55.274 16.57C54.218 16.57 53.382 15.712 53.382 14.678C53.382 13.622 54.218 12.786 55.274 12.786C56.308 12.786 57.144 13.622 57.144 14.678C57.144 15.712 56.308 16.57 55.274 16.57ZM56.946 29H53.602V18H56.946V29ZM64.2177 29.286C60.6757 29.286 58.4757 27.042 58.4757 23.478C58.4757 19.936 60.6757 17.692 64.2177 17.692C67.7377 17.692 69.9597 19.936 69.9597 23.478C69.9597 27.042 67.7377 29.286 64.2177 29.286ZM64.2177 26.58C65.5817 26.58 66.4397 25.392 66.4397 23.478C66.4397 21.586 65.5817 20.376 64.2177 20.376C62.8537 20.376 61.9957 21.586 61.9957 23.478C61.9957 25.392 62.8537 26.58 64.2177 26.58ZM76.2739 17.692C79.0899 17.692 81.0259 19.254 81.4879 21.762L78.3639 22.246C78.0999 21.234 77.4839 20.398 76.4279 20.398C75.1739 20.398 74.3819 21.564 74.3819 23.478C74.3819 25.37 75.1519 26.558 76.4719 26.558C77.4839 26.558 78.1219 25.898 78.3859 24.468L81.5319 24.974C81.1139 27.724 79.1779 29.264 76.3179 29.264C72.9519 29.264 70.8619 27.042 70.8619 23.478C70.8619 19.914 72.9519 17.692 76.2739 17.692ZM87.6948 17.692C90.6428 17.692 92.4908 19.232 92.4908 21.718V29H89.5648V27.636C88.8608 28.714 87.5848 29.286 86.0228 29.286C83.7128 29.286 82.2608 28.032 82.2608 26.03C82.2608 23.874 83.9548 22.532 86.7488 22.532C87.6288 22.532 88.5308 22.664 89.1908 22.906V21.762C89.1908 20.706 88.5968 20.068 87.6508 20.068C86.8368 20.068 86.2428 20.574 85.9348 21.454L82.7228 20.948C83.2068 18.968 85.0328 17.692 87.6948 17.692ZM87.2108 26.998C88.4428 26.998 89.1908 26.272 89.1908 25.106V24.688C88.6188 24.446 88.0028 24.314 87.4088 24.314C86.2868 24.314 85.6048 24.82 85.6048 25.678C85.6048 26.492 86.1988 26.998 87.2108 26.998ZM99.4641 26.25H100.696V29H98.4521C96.1421 29 94.7121 27.702 94.7121 25.656L94.6901 20.706H93.3701L93.3481 18H94.6901L95.9441 15.294H98.0341V18H100.454V20.706H98.0561V24.776C98.0561 25.678 98.6061 26.25 99.4641 26.25ZM106.845 29.286C103.303 29.286 101.103 27.042 101.103 23.478C101.103 19.936 103.303 17.692 106.845 17.692C110.365 17.692 112.587 19.936 112.587 23.478C112.587 27.042 110.365 29.286 106.845 29.286ZM106.845 26.58C108.209 26.58 109.067 25.392 109.067 23.478C109.067 21.586 108.209 20.376 106.845 20.376C105.481 20.376 104.623 21.586 104.623 23.478C104.623 25.392 105.481 26.58 106.845 26.58ZM120.551 17.714H120.991V20.794H120.617C118.681 20.794 117.493 21.894 117.427 23.874L117.449 29H114.105V18H116.921L116.899 20.552C117.493 18.792 118.813 17.714 120.551 17.714ZM123.694 16.57C122.638 16.57 121.802 15.712 121.802 14.678C121.802 13.622 122.638 12.786 123.694 12.786C124.728 12.786 125.564 13.622 125.564 14.678C125.564 15.712 124.728 16.57 123.694 16.57ZM125.366 29H122.022V18H125.366V29Z" fill="white"/>
</g>
<defs>
<clipPath id="clip0_133_1514">
<rect width="137" height="44" fill="white"/>
</clipPath>
</defs>
</svg>
